<?xml version="1.0" encoding="UTF-8"?>
<svg width="17px" height="17px" viewBox="0 0 17 17" version="1.1" xmlns="http://www.w3.org/2000/svg" xmlns:xlink="http://www.w3.org/1999/xlink">
    <!-- Generator: Sketch 50.2 (55047) - http://www.bohemiancoding.com/sketch -->
    <title>close</title>
    <desc>Created with Sketch.</desc>
    <defs></defs>
    <g id="Homepage" stroke="none" stroke-width="1" fill="none" fill-rule="evenodd">
        <g id="Menu-Mobile-(iPhone-8)" transform="translate(-340.000000, -93.000000)" fill="#434343" fill-rule="nonzero">
            <g id="menu" transform="translate(0.000000, 75.000000)">
                <g id="close" transform="translate(340.000000, 18.000000)">
                    <path d="M8.5,7.08578644 L15.2928932,0.292893219 C15.6834175,-0.0976310729 16.3165825,-0.0976310729 16.7071068,0.292893219 C17.0976311,0.683417511 17.0976311,1.31658249 16.7071068,1.70710678 L9.91421356,8.5 L16.7071068,15.2928932 C17.0976311,15.6834175 17.0976311,16.3165825 16.7071068,16.7071068 C16.3165825,17.0976311 15.6834175,17.0976311 15.2928932,16.7071068 L8.5,9.91421356 L1.70710678,16.7071068 C1.31658249,17.0976311 0.683417511,17.0976311 0.292893219,16.7071068 C-0.0976310729,16.3165825 -0.0976310729,15.6834175 0.292893219,15.2928932 L7.08578644,8.5 L0.292893219,1.70710678 C-0.0976310729,1.31658249 -0.0976310729,0.683417511 0.292893219,0.292893219 C0.683417511,-0.0976310729 1.31658249,-0.0976310729 1.70710678,0.292893219 L8.5,7.08578644 Z" id="Combined-Shape"></path>
                </g>
            </g>
        </g>
    </g>
</svg>