<?xml version="1.0" encoding="UTF-8"?>
<svg width="40px" height="22px" viewBox="0 0 40 22" version="1.1" xmlns="http://www.w3.org/2000/svg" xmlns:xlink="http://www.w3.org/1999/xlink">
    <!-- Generator: Sketch 50.2 (55047) - http://www.bohemiancoding.com/sketch -->
    <title>twitter</title>
    <desc>Created with Sketch.</desc>
    <defs></defs>
    <g id="Homepage" stroke="none" stroke-width="1" fill="none" fill-rule="evenodd">
        <g id="PopChest-06.05" transform="translate(-129.000000, -9553.000000)">
            <g id="15-block---our-team" transform="translate(128.000000, 9220.000000)">
                <g id="team" transform="translate(0.000000, 85.000000)">
                    <g id="Valerian_Bennett" transform="translate(0.000000, 32.000000)">
                        <g id="twitter" transform="translate(1.000000, 216.000000)">
                            <rect id="Rectangle-4" fill="#FFDF6D" x="0" y="8" width="40" height="14"></rect>
                            <path d="M29.5693876,1.79524896 C29.2709047,1.92763562 28.9640251,2.03936751 28.6504648,2.13007689 C29.0216991,1.71023956 29.3047369,1.21624118 29.4775137,0.675662302 C29.5162491,0.554491732 29.4761041,0.421859908 29.3765076,0.342611781 C29.2770338,0.263302363 29.1388245,0.253802394 29.0292991,0.318708633 C28.3633819,0.713662178 27.6449391,0.997496732 26.8916222,1.16347038 C26.1327892,0.421982488 25.1021345,0 24.0366671,0 C21.787626,0 19.9578707,1.829694 19.9578707,4.07867373 C19.9578707,4.25580218 19.9690868,4.43194999 19.9912739,4.6056462 C17.2004282,4.36060829 14.6058334,2.98887408 12.8241296,0.803329626 C12.760633,0.725429881 12.662814,0.683446148 12.5626659,0.691475154 C12.4624566,0.699320289 12.3724214,0.755829782 12.3217958,0.842677884 C11.9604292,1.46275005 11.7693879,2.17193804 11.7693879,2.89350665 C11.7693879,3.87629375 12.1202738,4.80876166 12.7401008,5.53737863 C12.5516337,5.47210465 12.368744,5.3905275 12.1941897,5.29362782 C12.1004771,5.24146992 11.9861098,5.24226669 11.8930101,5.29565039 C11.7998491,5.34903409 11.7414396,5.44722086 11.738988,5.55453986 C11.738559,5.57262045 11.738559,5.59070104 11.738559,5.60902678 C11.738559,7.07600585 12.5280983,8.39674668 13.7352073,9.11659916 C13.6315044,9.10624113 13.5278628,9.09122505 13.4248954,9.07155092 C13.3187409,9.05126389 13.2095832,9.08846699 13.1379963,9.16943125 C13.0662869,9.25033421 13.0425676,9.36310803 13.075603,9.46607544 C13.522408,10.8610386 14.6727623,11.8870965 16.0634351,12.1999213 C14.9100163,12.922348 13.5909916,13.3007532 12.2063252,13.3007532 C11.9174035,13.3007532 11.6268271,13.2837758 11.3424409,13.2501276 C11.2011672,13.2333341 11.0660838,13.3167499 11.017971,13.4510979 C10.9698583,13.5855071 11.0208516,13.7353614 11.1410416,13.8124031 C12.9198648,14.952951 14.9767,15.5558006 17.089064,15.5558006 C21.2417149,15.5558006 23.8394967,13.5975813 25.2874759,11.9548221 C27.0930828,9.90644496 28.1286407,7.19515384 28.1286407,4.51622391 C28.1286407,4.40430815 28.1269246,4.29128916 28.1234924,4.17863792 C28.8358675,3.64192032 29.4491977,2.99236761 29.9482832,2.24579264 C30.0240991,2.13240592 30.0158862,1.98255157 29.9280574,1.87817449 C29.8403513,1.77373612 29.6941743,1.73996527 29.5693876,1.79524896 Z" id="XMLID_827_" fill="#4A4A4A" fill-rule="nonzero"></path>
                        </g>
                    </g>
                </g>
            </g>
        </g>
    </g>
</svg>