<?xml version="1.0" encoding="UTF-8"?>
<svg width="40px" height="23px" viewBox="0 0 40 23" version="1.1" xmlns="http://www.w3.org/2000/svg" xmlns:xlink="http://www.w3.org/1999/xlink">
    <!-- Generator: Sketch 50.2 (55047) - http://www.bohemiancoding.com/sketch -->
    <title>linkedin</title>
    <desc>Created with Sketch.</desc>
    <defs></defs>
    <g id="Homepage" stroke="none" stroke-width="1" fill="none" fill-rule="evenodd">
        <g id="PopChest-06.05" transform="translate(-532.000000, -9552.000000)">
            <g id="15-block---our-team" transform="translate(128.000000, 9220.000000)">
                <g id="team" transform="translate(0.000000, 85.000000)">
                    <g id="Jeremy_Grodberg" transform="translate(402.000000, 25.000000)">
                        <g id="linkedin" transform="translate(2.000000, 222.000000)">
                            <rect id="Rectangle-4" fill="#FFDF6D" x="0" y="9" width="40" height="14"></rect>
                            <path d="M27.85,10.4226865 L27.85,17 L24.024167,17 L24.024167,10.8631953 C24.024167,9.32157994 23.4708015,8.26948774 22.0859768,8.26948774 C21.0288388,8.26948774 20.3997352,8.97852079 20.1229694,9.66439093 C20.0220406,9.90958681 19.9960614,10.2508674 19.9960614,10.594092 L19.9960614,17 L16.1689419,17 C16.1689419,17 16.2204854,6.60626712 16.1689419,5.52939888 L19.9956879,5.52939888 L19.9956879,7.15531068 C19.9879274,7.1674712 19.9778428,7.18058306 19.9705387,7.19237133 L19.9956879,7.19237133 L19.9956879,7.15531068 C20.5041085,6.37484489 21.4120944,5.25992331 23.4444488,5.25992331 C25.9623987,5.25988195 27.85,6.89936059 27.85,10.4226865 Z M12.165612,0 C10.8563594,0 10,0.855910677 10,1.98146238 C10,3.08248622 10.8315837,3.96437244 12.1148156,3.96437244 L12.1403798,3.96437244 C13.4749891,3.96437244 14.3049958,3.08265167 14.3049958,1.98146238 C14.2798466,0.855910677 13.4749891,0 12.165612,0 Z M10.2272973,17 L14.0529643,17 L14.0529643,5.52939888 L10.2272973,5.52939888 L10.2272973,17 Z" id="LinkedIn" fill="#4A4A4A" fill-rule="nonzero"></path>
                        </g>
                    </g>
                </g>
            </g>
        </g>
    </g>
</svg>