<?xml version="1.0" encoding="UTF-8"?>
<svg width="883px" height="531px" viewBox="0 0 883 531" version="1.1" xmlns="http://www.w3.org/2000/svg" xmlns:xlink="http://www.w3.org/1999/xlink">
    <!-- Generator: Sketch 51.1 (57501) - http://www.bohemiancoding.com/sketch -->
    <title>Group</title>
    <desc>Created with Sketch.</desc>
    <defs>
        <linearGradient x1="-1.47179221%" y1="77.0454308%" x2="100%" y2="50%" id="linearGradient-1">
            <stop stop-color="#FFAEAE" offset="0%"></stop>
            <stop stop-color="#FF7E7E" offset="100%"></stop>
        </linearGradient>
        <linearGradient x1="-1.9808476%" y1="73.6021598%" x2="97.835486%" y2="16.1096367%" id="linearGradient-2">
            <stop stop-color="#801ACB" offset="0%"></stop>
            <stop stop-color="#9192FC" offset="100%"></stop>
        </linearGradient>
    </defs>
    <g id="Page-1" stroke="none" stroke-width="1" fill="none" fill-rule="evenodd">
        <g id="Group" transform="translate(1.000000, -4.000000)">
            <g id="graph">
                <text id="$0.001-per-view" fill="#4A4A4A" font-family="AvenirNext-Regular, Avenir Next" font-size="24" font-weight="normal">
                    <tspan x="165.472571" y="414">$0.001 per view</tspan>
                </text>
                <text id="YOUTUBE" fill="#4A4A4A" font-family="AvenirNext-Regular, Avenir Next" font-size="24" font-weight="normal">
                    <tspan x="199.604" y="534">YOUTUBE</tspan>
                </text>
                <text id="POPCHEST" fill="#4A4A4A" font-family="AvenirNext-Regular, Avenir Next" font-size="24" font-weight="normal">
                    <tspan x="539.740571" y="534">POPCHEST</tspan>
                </text>
                <text id="$0.01-per-view" fill="#4A4A4A" font-family="AvenirNext-Regular, Avenir Next" font-size="24" font-weight="normal">
                    <tspan x="520.284" y="24">$0.01 per view</tspan>
                </text>
                <path d="M96,436 L417,436 C418.656854,436 420,437.343146 420,439 L420,501 C420,501.552285 419.552285,502 419,502 L94,502 C93.447715,502 93,501.552285 93,501 L93,439 C93,437.343146 94.343146,436 96,436 Z" id="Rectangle-22" fill="url(#linearGradient-1)" fill-rule="nonzero"></path>
                <path d="M444,46 L765,46 C766.656854,46 768,47.343146 768,49 L768,501 C768,501.552285 767.552285,502 767,502 L442,502 C441.447715,502 441,501.552285 441,501 L441,49 C441,47.343146 442.343146,46 444,46 Z" id="Rectangle-22" fill="url(#linearGradient-2)" fill-rule="nonzero"></path>
                <path d="M0.235367,501.416209 L880.38891,501.416209" id="Path-3" stroke="#979797" stroke-width="2" stroke-linecap="round"></path>
            </g>
        </g>
    </g>
</svg>