<?xml version="1.0" encoding="UTF-8"?>
<svg width="126px" height="36px" viewBox="0 0 126 36" version="1.1" xmlns="http://www.w3.org/2000/svg" xmlns:xlink="http://www.w3.org/1999/xlink">
    <!-- Generator: Sketch 50.2 (55047) - http://www.bohemiancoding.com/sketch -->
    <title>Nasdaq_logo</title>
    <desc>Created with Sketch.</desc>
    <defs>
        <linearGradient x1="26.5887414%" y1="-6.03925516e-05%" x2="73.4151101%" y2="100.00148%" id="linearGradient-1">
            <stop stop-color="#A7A5A6" offset="0%"></stop>
            <stop stop-color="#E0E0E0" offset="19.0184%"></stop>
            <stop stop-color="#E0E0E0" offset="28.055154%"></stop>
            <stop stop-color="#7B7979" offset="36.1963%"></stop>
            <stop stop-color="#F6F6F6" offset="46.92972%"></stop>
            <stop stop-color="#F6F6F6" offset="57.0552%"></stop>
            <stop stop-color="#F6F6F6" offset="91.371851%"></stop>
            <stop stop-color="#BBBABA" offset="100%"></stop>
        </linearGradient>
        <polygon id="path-2" points="0.702597447 0.450666667 125.920325 0.450666667 125.920325 35.7853333 0.702597447 35.7853333"></polygon>
        <linearGradient x1="73.4088308%" y1="99.9987669%" x2="26.5854538%" y2="-0.00128843928%" id="linearGradient-4">
            <stop stop-color="#BBBABA" offset="0%"></stop>
            <stop stop-color="#F6F6F6" offset="7.387683%"></stop>
            <stop stop-color="#F6F6F6" offset="14.1104%"></stop>
            <stop stop-color="#F6F6F6" offset="22.501668%"></stop>
            <stop stop-color="#7B7979" offset="30.0613%"></stop>
            <stop stop-color="#E0E0E0" offset="38.90063%"></stop>
            <stop stop-color="#E0E0E0" offset="47.2393%"></stop>
            <stop stop-color="#A7A5A6" offset="87.012469%"></stop>
            <stop stop-color="#A7A5A6" offset="100%"></stop>
        </linearGradient>
        <linearGradient x1="49.9966013%" y1="99.9981494%" x2="49.9965923%" y2="-0.00222826497%" id="linearGradient-5">
            <stop stop-color="#009EC5" offset="0%"></stop>
            <stop stop-color="#009EC5" offset="32.5153%"></stop>
            <stop stop-color="#ADDFE8" offset="93.865%"></stop>
            <stop stop-color="#ADDFE8" offset="100%"></stop>
        </linearGradient>
        <polygon id="path-6" points="0.702597447 0.450666667 125.920325 0.450666667 125.920325 35.7853333 0.702597447 35.7853333"></polygon>
    </defs>
    <g id="New" stroke="none" stroke-width="1" fill="none" fill-rule="evenodd">
        <g id="PopChest-05.29" transform="translate(-776.000000, -1002.000000)">
            <g id="2_as_seen_on_block" transform="translate(117.000000, 942.000000)">
                <g id="Nasdaq_logo" transform="translate(659.000000, 60.000000)">
                    <g id="Group" transform="translate(30.500000, 13.500000) scale(-1, 1) rotate(-180.000000) translate(-30.500000, -13.500000) translate(20.000000, 0.000000)" fill="url(#linearGradient-1)" fill-rule="nonzero">
                        <g transform="translate(0.000000, -0.000000)" id="Shape">
                            <path d="M11.237625,26.784 L2.1616875,1.456 C1.9201875,0.777333333 1.278375,0.290666667 0.5263125,0.290666667 L10.087875,0.290666667 C10.84125,0.290666667 11.48175,0.777333333 11.7245625,1.456 L20.7991875,26.784 L11.237625,26.784 Z"></path>
                        </g>
                    </g>
                    <g id="Group" transform="translate(63.000000, 18.000000) scale(-1, 1) rotate(-180.000000) translate(-63.000000, -18.000000) ">
                        <g id="Clipped" transform="translate(0.000000, 0.000000)">
                            <mask id="mask-3" fill="white">
                                <use xlink:href="#path-2"></use>
                            </mask>
                            <g id="Shape"></g>
                            <g id="Group" mask="url(#mask-3)" fill="#918F90" fill-rule="nonzero">
                                <g transform="translate(30.593154, 9.165867)" id="Shape">
                                    <path d="M1.82117899,1.33333333 L11.1454578,26.6186667 L11.0306101,26.6186667 L1.72119397,1.36933333 C1.47258257,0.693333333 0.815924183,0.128 0.0863037572,0.128 L0.0863037572,0.124 C0.860512098,0.124 1.55770495,0.616 1.82117899,1.33333333"></path>
                                </g>
                            </g>
                        </g>
                    </g>
                    <g id="Group" transform="translate(11.000000, 22.500000) scale(-1, 1) rotate(-180.000000) translate(-11.000000, -22.500000) translate(0.000000, 9.000000)" fill="url(#linearGradient-4)" fill-rule="nonzero">
                        <g transform="translate(0.000000, -0.000000)" id="Shape">
                            <path d="M11.7949412,26.9426667 C11.0197059,26.9426667 10.3581176,26.4586667 10.1091765,25.7773333 L0.754941176,0.450666667 L10.6097647,0.450666667 L19.9653529,25.7773333 C20.2142941,26.4586667 20.8758824,26.9426667 21.6524706,26.9426667 L11.7949412,26.9426667 Z"></path>
                        </g>
                    </g>
                    <g id="Group" transform="translate(21.000000, 18.000000) scale(-1, 1) rotate(-180.000000) translate(-21.000000, -18.000000) translate(16.000000, 9.000000)" fill="url(#linearGradient-5)" fill-rule="nonzero">
                        <g transform="translate(0.000000, -0.000000)" id="Shape">
                            <path d="M3.790875,16.7773333 L0.499125,8.00666667 L2.960375,1.456 C3.21475,0.777333333 3.887125,0.290666667 4.675,0.290666667 L4.676375,0.290666667 C5.46425,0.290666667 6.136625,0.777333333 6.389625,1.456 L9.68275,10.2253333 L7.220125,16.7773333 C6.967125,17.4586667 6.293375,17.9426667 5.5055,17.9426667 C4.71625,17.9426667 4.043875,17.4586667 3.790875,16.7773333"></path>
                        </g>
                    </g>
                    <g id="Group" transform="translate(63.000000, 18.000000) scale(-1, 1) rotate(-180.000000) translate(-63.000000, -18.000000) ">
                        <g id="Clipped" transform="translate(0.000000, 0.000000)">
                            <mask id="mask-7" fill="white">
                                <use xlink:href="#path-6"></use>
                            </mask>
                            <g id="Shape"></g>
                            <g id="Group" mask="url(#mask-7)">
                                <g transform="translate(0.000000, 0.000000)">
                                    <g transform="translate(0.571671, 0.412133)">
                                        <path d="M9.45804255,25.3333333 L0.131061447,0.0386666667 L0.244557957,0.0386666667 L9.55802757,25.2973333 C9.80663898,25.9733333 10.4632974,26.5293333 11.1929178,26.5293333 L11.1929178,26.5306667 C10.4187094,26.5306667 9.7215166,26.0506667 9.45804255,25.3333333" id="Shape" fill="#BDBCBC" fill-rule="nonzero"></path>
                                    </g>
                                    <g transform="translate(10.407765, 0.412133)">
                                        <path d="M9.45804255,25.3333333 L0.131061447,0.0386666667 L0.244557957,0.0386666667 L9.55802757,25.2973333 C9.80663898,25.9733333 10.4632974,26.5293333 11.1929178,26.5293333 L11.1929178,26.5306667 C10.4187094,26.5306667 9.7215166,26.0506667 9.45804255,25.3333333" id="Shape" fill="#918F90" fill-rule="nonzero"></path>
                                    </g>
                                    <g transform="translate(20.749224, 9.156000)">
                                        <path d="M1.82117899,1.33333333 L11.1481601,26.628 L11.0346636,26.628 L1.72119397,1.36933333 C1.47258257,0.693333333 0.815924183,0.137333333 0.0863037572,0.137333333 L0.0863037572,0.134666667 C0.860512098,0.134666667 1.55770495,0.616 1.82117899,1.33333333" id="Shape" fill="#BDBCBC" fill-rule="nonzero"></path>
                                    </g>
                                    <g transform="translate(86.277928, 8.879067)">
                                        <path d="M7.09889362,11 C4.36146587,11 3.03058417,9.54266667 3.03058417,6.544 C3.03058417,3.85466667 4.63574911,2.18266667 7.21644357,2.18266667 C7.71096409,2.18266667 8.27979779,2.21333333 9.05265498,2.28133333 L9.05265498,10.8226667 C8.27844664,10.9426667 7.65691813,11 7.09889362,11 M7.1232143,0.00933333333 C2.79143081,0.00933333333 0.101293277,2.48666667 0.101293277,6.476 C0.101293277,10.62 2.58335387,13.196 6.58140357,13.196 L6.91919081,13.1973333 C7.41911591,13.1973333 8.11090417,13.1826667 9.05265498,13.064 L9.05265498,18.0653333 L11.8819609,18.0653333 L11.8819609,0.46 C11.8819609,0.46 9.19722791,0.00933333333 7.1232143,0.00933333333" id="Shape" fill="#009EC5" fill-rule="nonzero"></path>
                                    </g>
                                    <g transform="translate(43.889911, 9.290400)">
                                        <polygon id="Shape" fill="#009EC5" fill-rule="nonzero" points="10.8091915 -8.52651283e-14 3.1752 13.1466667 3.17384885 -8.52651283e-14 0.513436596 -8.52651283e-14 0.513436596 16.6413333 4.23585191 16.6413333 11.8711946 3.612 11.8711946 16.6413333 14.5613321 16.6413333 14.5613321 -8.52651283e-14"></polygon>
                                    </g>
                                    <g transform="translate(74.485768, 9.035467)">
                                        <path d="M4.52347686,-8.52651283e-14 C3.23988537,-8.52651283e-14 1.89819448,0.141333333 0.301136438,0.445333333 L0.13359397,0.477333333 L0.13359397,2.80266667 L0.386258821,2.748 C1.79145371,2.45333333 3.00478546,2.19866667 4.21946835,2.19866667 C5.20175363,2.19866667 7.48789763,2.352 7.48789763,3.77733333 C7.48789763,4.97333333 5.90840452,5.272 4.63832452,5.512 L4.55860674,5.52666667 C4.32215567,5.57333333 4.10056725,5.61733333 3.9087041,5.664 C2.04817201,6.14133333 0.0619830763,6.85733333 0.0619830763,9.31866667 C0.0619830763,11.7186667 1.98872146,13.0946667 5.34632657,13.0946667 C6.9568961,13.0946667 8.12699108,12.924 9.06739074,12.7853333 L9.52543023,12.7173333 L9.52543023,10.464 L9.28087227,10.5066667 C8.21751806,10.7 6.97040759,10.8986667 5.76923618,10.8986667 C4.43970563,10.8986667 2.85345678,10.652 2.85345678,9.48133333 C2.85345678,8.51066667 4.14920861,8.23333333 5.65033508,7.91066667 C7.74596708,7.46 10.3469288,6.9 10.3469288,4.07733333 C10.3469288,1.48666667 8.22562495,-8.52651283e-14 4.52347686,-8.52651283e-14" id="Shape" fill="#009EC5" fill-rule="nonzero"></path>
                                    </g>
                                    <g transform="translate(100.322673, 8.588267)">
                                        <path d="M6.75574468,6.66666667 C4.34259268,6.66666667 2.84687081,6.316 2.84687081,4.57066667 C2.84687081,2.55333333 4.75469311,2.384 6.54496545,2.384 C7.21513532,2.384 8.41630672,2.468 8.78381923,2.496 L8.78381923,6.59866667 C8.26497804,6.61866667 6.91788255,6.66666667 6.75574468,6.66666667 M5.76940596,0.446666667 C2.84281736,0.446666667 0.133763745,0.954666667 0.133763745,4.64133333 C0.133763745,8.64933333 4.32232545,8.64933333 6.82600443,8.64933333 C7.07596698,8.64933333 8.2528177,8.59733333 8.61492562,8.58133333 C8.61222332,10.8306667 8.58114689,11.368 5.27488545,11.368 C3.96427098,11.368 2.50908357,11.1106667 1.22414094,10.884 L0.97823183,10.8413333 L0.97823183,13.0626667 L1.1457743,13.096 C2.63474043,13.396 4.07101174,13.5426667 5.53430604,13.5426667 C8.73788017,13.5426667 11.4536895,13.2226667 11.4536895,9.30133333 L11.4536895,0.746666667 L11.2577729,0.726666667 C9.03783523,0.481333333 7.27593702,0.446666667 5.76940596,0.446666667" id="Shape" fill="#009EC5" fill-rule="nonzero"></path>
                                    </g>
                                    <g transform="translate(60.673883, 8.588267)">
                                        <path d="M6.75574468,6.66666667 C4.34259268,6.66666667 2.84687081,6.316 2.84687081,4.57066667 C2.84687081,2.55333333 4.75604426,2.384 6.54496545,2.384 C7.21513532,2.384 8.41630672,2.468 8.78517038,2.496 L8.78517038,6.59866667 C8.26497804,6.61866667 6.9192337,6.66666667 6.75574468,6.66666667 M5.76940596,0.446666667 C2.84281736,0.446666667 0.133763745,0.954666667 0.133763745,4.64133333 C0.133763745,8.64933333 4.32232545,8.64933333 6.82600443,8.64933333 C7.07596698,8.64933333 8.25416885,8.59733333 8.61492562,8.58133333 C8.61222332,10.8306667 8.58249804,11.368 5.2762366,11.368 C3.96427098,11.368 2.50908357,11.1106667 1.22414094,10.884 L0.97823183,10.8413333 L0.97823183,13.0626667 L1.1457743,13.096 C2.63474043,13.396 4.07101174,13.5426667 5.53295489,13.5426667 C8.73923132,13.5426667 11.4536895,13.2226667 11.4536895,9.30133333 L11.4536895,0.746666667 L11.2577729,0.726666667 C9.03918638,0.481333333 7.27593702,0.446666667 5.76940596,0.446666667" id="Shape" fill="#009EC5" fill-rule="nonzero"></path>
                                    </g>
                                    <g transform="translate(113.227092, 3.553067)">
                                        <path d="M8.10689362,16.3333333 C5.23705328,16.3333333 3.78186587,14.8893333 3.78186587,12.0413333 C3.78186587,8.37866667 5.95451336,7.61066667 7.77991557,7.61066667 C8.22174128,7.61066667 8.72301753,7.61066667 9.82825736,7.748 L9.82825736,16.2546667 C8.96217089,16.312 8.56358196,16.3333333 8.10689362,16.3333333 Z M9.80123438,0.0853333333 L9.80123438,5.54266667 C8.69869685,5.39066667 8.11094706,5.39066667 7.63804494,5.39066667 C6.51929362,5.39066667 5.2762366,5.63066667 4.3128674,6.03333333 C2.16048715,6.91466667 0.874193362,9.16133333 0.874193362,12.0413333 C0.874193362,13.4813333 1.22954553,16.1106667 3.60621651,17.5266667 C4.79387643,18.2293333 6.20447591,18.5306667 8.319024,18.5306667 C9.07701855,18.5306667 10.0998383,18.472 11.0888793,18.416 L12.6926931,18.3346667 L12.6926931,1.34933333 L9.80123438,0.0853333333 Z" id="Shape" fill="#009EC5" fill-rule="nonzero"></path>
                                    </g>
                                </g>
                            </g>
                        </g>
                    </g>
                </g>
            </g>
        </g>
    </g>
</svg>