<?xml version="1.0" encoding="UTF-8"?>
<svg width="133px" height="27px" viewBox="0 0 133 27" version="1.1" xmlns="http://www.w3.org/2000/svg" xmlns:xlink="http://www.w3.org/1999/xlink">
    <!-- Generator: Sketch 50.2 (55047) - http://www.bohemiancoding.com/sketch -->
    <title>logo</title>
    <desc>Created with Sketch.</desc>
    <defs></defs>
    <g id="New" stroke="none" stroke-width="1" fill="none" fill-rule="evenodd">
        <g id="PopChest-05.29" transform="translate(-70.000000, -27.000000)">
            <g id="Hero_screen">
                <g id="header">
                    <g id="logo" transform="translate(70.000000, 27.000000)">
                        <path d="M41.698546,9.21679842 C41.5089833,9.21679842 41.3228384,9.2228455 41.1393228,9.23441382 C40.9555442,9.24624506 40.7967427,9.2580763 40.663444,9.26938171 L40.663444,12.7758982 L41.481377,12.7758982 C42.3831804,12.7758982 43.0620306,12.647332 43.5184536,12.3899368 C43.9746136,12.1333304 44.202825,11.6537708 44.202825,10.9523098 C44.202825,10.6136734 44.1444576,10.3331416 44.0277227,10.1109772 C43.9107249,9.88907573 43.7437729,9.71081839 43.5268669,9.57620518 C43.3096979,9.44185488 43.045204,9.34851955 42.733648,9.29593626 C42.422092,9.24309006 42.0768828,9.21679842 41.698546,9.21679842 Z M41.5315941,6.88525551 C43.2568517,6.88525551 44.5811618,7.20391022 45.505313,7.8404309 C46.4292014,8.47774033 46.8911455,9.52099273 46.8911455,10.9701881 C46.8911455,12.4309518 46.4236801,13.4857725 45.4887493,14.1343874 C44.5535555,14.7832651 43.2179401,15.1074411 41.481377,15.1074411 L40.663444,15.1074411 L40.663444,19.1747583 L38.0587309,19.1747583 L38.0587309,7.20075522 C38.6263675,7.08402033 39.2273945,7.00225332 39.8618118,6.95519128 C40.4962292,6.90865507 41.0528233,6.88525551 41.5315941,6.88525551 Z" id="Fill-16" fill="#7F25BC"></path>
                        <path d="M51.8063682,13.0913979 C51.8063682,13.6874294 51.8760411,14.2250935 52.0151239,14.7041273 C52.1542067,15.1834239 52.354549,15.595414 52.6161508,15.9400974 C52.8777527,16.2850438 53.197722,16.5508523 53.5763216,16.7377859 C53.9546584,16.9249824 54.3887334,17.0183177 54.8785467,17.0183177 C55.3570546,17.0183177 55.7885005,16.9249824 56.1726214,16.7377859 C56.5567423,16.5508523 56.8793408,16.2850438 57.1409426,15.9400974 C57.4025445,15.595414 57.6028868,15.1834239 57.7422325,14.7041273 C57.8810524,14.2250935 57.9507252,13.6874294 57.9507252,13.0913979 C57.9507252,12.4951034 57.8810524,11.9548101 57.7422325,11.4697293 C57.6028868,10.9846485 57.4025445,10.5697664 57.1409426,10.2250829 C56.8793408,9.88013658 56.5567423,9.61432806 56.1726214,9.42739448 C55.7885005,9.2404609 55.3570546,9.14659973 54.8785467,9.14659973 C54.3887334,9.14659973 53.9546584,9.24309006 53.5763216,9.43607072 C53.197722,9.62878847 52.8777527,9.89801489 52.6161508,10.2424354 C52.354549,10.5873818 52.1542067,11.0022639 52.0151239,11.4873447 C51.8760411,11.9721626 51.8063682,12.5069346 51.8063682,13.0913979 Z M60.6390457,13.0913979 C60.6390457,14.1317582 60.4912867,15.0461815 60.1965574,15.8351937 C59.9015651,16.623943 59.4979884,17.2841262 58.9860901,17.8160061 C58.4739289,18.3478861 57.8644886,18.7483078 57.1577693,19.0167455 C56.450787,19.285709 55.6909585,19.4200593 54.8785467,19.4200593 C54.0882199,19.4200593 53.3425889,19.285709 52.6413908,19.0167455 C51.9401927,18.7483078 51.3278603,18.3478861 50.8046566,17.8160061 C50.2814529,17.2841262 49.8697258,16.623943 49.5692123,15.8351937 C49.2686988,15.0461815 49.1183106,14.1317582 49.1183106,13.0913979 C49.1183106,12.0513005 49.2742201,11.1366142 49.586039,10.3478649 C49.897332,9.5588527 50.3177354,8.89551454 50.8464603,8.35785044 C51.3749224,7.82044925 51.9872547,7.41713545 52.6829316,7.14817194 C53.3786085,6.87947134 54.1105678,6.74485813 54.8785467,6.74485813 C55.6688735,6.74485813 56.4147674,6.87947134 57.1159656,7.14817194 C57.8174266,7.41713545 58.4292331,7.82044925 58.9526997,8.35785044 C59.4756405,8.89551454 59.8876306,9.5588527 60.1881441,10.3478649 C60.4886575,11.1366142 60.6390457,12.0513005 60.6390457,13.0913979 Z" id="Fill-17" fill="#7F25BC"></path>
                        <path d="M67.2124824,9.21679842 C67.0229196,9.21679842 66.8367748,9.2228455 66.6532591,9.23441382 C66.4694805,9.24624506 66.310679,9.2580763 66.1773804,9.26938171 L66.1773804,12.7758982 L66.9953134,12.7758982 C67.8971167,12.7758982 68.575967,12.647332 69.032127,12.3899368 C69.4885499,12.1333304 69.7167614,11.6537708 69.7167614,10.9523098 C69.7167614,10.6136734 69.6583939,10.3331416 69.541659,10.1109772 C69.4246612,9.88907573 69.2577093,9.71081839 69.0408032,9.57620518 C68.8236342,9.44185488 68.5591403,9.34851955 68.2475843,9.29593626 C67.9360284,9.24309006 67.5908191,9.21679842 67.2124824,9.21679842 Z M67.0455304,6.88525551 C68.7705251,6.88525551 70.0950981,7.20391022 71.0192494,7.8404309 C71.9431377,8.47774033 72.4050819,9.52099273 72.4050819,10.9701881 C72.4050819,12.4309518 71.9373535,13.4857725 71.0026856,14.1343874 C70.0674919,14.7832651 68.7318764,15.1074411 66.9953134,15.1074411 L66.1773804,15.1074411 L66.1773804,19.1747583 L63.5726673,19.1747583 L63.5726673,7.20075522 C64.1403039,7.08402033 64.7413308,7.00225332 65.3757482,6.95519128 C66.0101655,6.90865507 66.5667596,6.88525551 67.0455304,6.88525551 Z" id="Fill-18" fill="#7F25BC"></path>
                        <path d="M80.4090468,19.4200593 C78.5278797,19.4200593 77.0947223,18.8708269 76.1095744,17.772362 C75.1246894,16.6736342 74.631984,15.1132252 74.631984,13.0913979 C74.631984,12.0862684 74.7823722,11.1891975 75.0828857,10.4001853 C75.3836621,9.61143598 75.7951263,8.94520575 76.31833,8.40149457 C76.8415337,7.85830922 77.4649086,7.44605625 78.1884546,7.16578734 C78.9120006,6.88525551 79.6965433,6.74485813 80.5428713,6.74485813 C81.0324217,6.74485813 81.4775392,6.78298101 81.8784867,6.85896386 C82.2791714,6.93494671 82.629639,7.0227608 82.9304154,7.12188029 C83.2306659,7.2212627 83.4812253,7.3235372 83.6815676,7.42870377 C83.8819099,7.53387034 84.026514,7.61590027 84.1159056,7.67426772 L83.3644904,9.88302866 C83.0082386,9.68452675 82.5936194,9.51494565 82.1206328,9.37454828 C81.6473832,9.23441382 81.1105078,9.16447805 80.5094809,9.16447805 C80.1085333,9.16447805 79.716262,9.23441382 79.3321411,9.37454828 C78.9480202,9.51494565 78.6083322,9.74000212 78.3136028,10.0497177 C78.0186106,10.3591703 77.7819858,10.759592 77.6039914,11.250457 C77.425734,11.741322 77.3368683,12.3373535 77.3368683,13.0388146 C77.3368683,13.5998782 77.3954987,14.122819 77.5122336,14.6078998 C77.6292314,15.0927177 77.8182683,15.510492 78.080133,15.8612225 C78.341472,16.211953 78.6835263,16.4895927 79.1068217,16.6938788 C79.5295913,16.8986907 80.0417525,17.0007023 80.6430424,17.0007023 C81.0211162,17.0007023 81.3608043,16.9773027 81.6615807,16.9307665 C81.9618312,16.8842303 82.2292173,16.828492 82.462687,16.7640775 C82.6964197,16.7001888 82.9022833,16.6268351 83.0805407,16.5450681 C83.2585351,16.4633011 83.4199658,16.3870553 83.5648327,16.3171196 L84.2825946,18.508528 C83.9155632,18.7422607 83.3978808,18.9528568 82.7298101,19.1395275 C82.0620024,19.326461 81.2885023,19.4200593 80.4090468,19.4200593" id="Fill-19" fill="#9192FC"></path>
                        <polyline id="Fill-20" fill="#9192FC" points="94.3622847 7.02538996 96.9667349 7.02538996 96.9667349 19.1747583 94.3622847 19.1747583 94.3622847 14.0202816 89.9878811 14.0202816 89.9878811 19.1747583 87.3831681 19.1747583 87.3831681 7.02538996 89.9878811 7.02538996 89.9878811 11.6713862 94.3622847 11.6713862 94.3622847 7.02538996"></polyline>
                        <path d="M116.316333,17.0887793 C116.68389,17.0887793 116.986769,17.0567035 117.226286,16.992026 C117.46554,16.9278744 117.657732,16.8403233 117.802599,16.7291096 C117.946677,16.6184218 118.047111,16.4869636 118.10285,16.334735 C118.158325,16.1827693 118.186457,16.0134511 118.186457,15.8262546 C118.186457,15.4289879 118.0082,15.0987648 117.651948,14.8355855 C117.295696,14.572669 116.68389,14.289508 115.815477,13.9855767 C115.436614,13.8454422 115.058277,13.6845373 114.680204,13.5033879 C114.301341,13.3222385 113.962179,13.0942899 113.661665,12.8195423 C113.360889,12.5450575 113.115851,12.2122053 112.927077,11.8204598 C112.737514,11.4289773 112.642864,10.9525727 112.642864,10.391509 C112.642864,9.83044537 112.743035,9.32511999 112.943641,8.87500706 C113.143983,8.42541996 113.427933,8.04235072 113.794964,7.726851 C114.162521,7.41135128 114.607376,7.16867942 115.130842,6.99936124 C115.654046,6.83004305 116.243768,6.74512105 116.900796,6.74512105 C117.679817,6.74512105 118.353146,6.83267222 118.920783,7.00803748 C119.488682,7.18340274 119.956148,7.37612048 120.323442,7.58645363 L119.57229,9.7428942 C119.249165,9.56752894 118.890284,9.41267116 118.495121,9.27832086 C118.099958,9.14423348 117.624342,9.07666396 117.067748,9.07666396 C116.444373,9.07666396 115.9961,9.16737013 115.723456,9.34851955 C115.450549,9.52993189 115.314621,9.80730872 115.314621,10.1811759 C115.314621,10.4033403 115.364575,10.5905368 115.464746,10.7422396 C115.56518,10.8942053 115.706892,11.0317105 115.890671,11.1542296 C116.074187,11.2767487 116.285571,11.3882252 116.525088,11.4873447 C116.764342,11.5867271 117.028573,11.6890016 117.318307,11.7941682 C117.919334,12.0281638 118.442275,12.2587415 118.887655,12.4866901 C119.332773,12.7146386 119.702959,12.9804471 119.997951,13.2843785 C120.292681,13.5883099 120.512742,13.9448246 120.657609,14.3536597 C120.80195,14.7630205 120.874515,15.2596697 120.874515,15.84387 C120.874515,16.9775656 120.496178,17.857284 119.739242,18.4822364 C118.982042,19.1077146 117.841248,19.4203222 116.316333,19.4203222 C115.804171,19.4203222 115.342227,19.3879835 114.9305,19.3238319 C114.51851,19.2596803 114.154108,19.1805424 113.837031,19.0872071 C113.519428,18.9938718 113.24652,18.8944893 113.018572,18.7890599 C112.79036,18.6838933 112.598431,18.5847738 112.442785,18.4911755 L113.177373,16.3171196 C113.522057,16.5161473 113.947981,16.6941417 114.454621,16.8518916 C114.960998,17.0096414 115.581744,17.0887793 116.316333,17.0887793" id="Fill-21" fill="#9192FC"></path>
                        <polyline id="Fill-22" fill="#9192FC" points="132.907411 7.02538996 132.907411 9.35719579 129.417721 9.35719579 129.417721 19.1747583 126.813271 19.1747583 126.813271 9.35719579 123.323844 9.35719579 123.323844 7.02538996 132.907411 7.02538996"></polyline>
                        <polyline id="Fill-23" fill="#9192FC" points="100.861053 19.2772957 100.861053 7.12792737 108.674929 7.12792737 108.674929 9.42502823 103.465766 9.42502823 103.465766 16.9809836 109.05905 16.9809836 109.05905 19.2772957 100.861053 19.2772957"></polyline>
                        <path d="M105.968468,11.5848867 L108.526907,13.0619512 C108.679662,13.1502911 108.679662,13.2946323 108.526907,13.3829722 L105.968468,14.8600367 C105.815713,14.9483766 105.690565,14.8760746 105.690565,14.6993948 L105.690565,11.7452657 C105.690565,11.5688488 105.815713,11.4965468 105.968468,11.5848867" id="Fill-24" fill="#9192FC"></path>
                        <g id="Group-8">
                            <path d="M23.1445335,14.9762458 C22.1969826,16.6228914 20.3720797,18.8553148 19.6832386,19.5444188 C18.9943976,20.2332598 16.7617113,22.0581628 15.1155915,23.0057136 L14.8886946,23.2323475 L18.5295613,26.8729514 C20.5132658,25.4484701 22.4488566,23.8225949 23.2052672,23.0664473 C23.9351232,22.3365913 25.474236,20.5085333 26.8611201,18.5989713 L23.1915955,14.9294466 L23.1445335,14.9762458" id="Fill-25" fill="#9192FC"></path>
                            <path d="M12.1840733,3.92192441 L8.50219156,0.240042702 C6.5923666,1.62692688 4.76457157,3.16603967 4.03471556,3.89563276 C3.27830498,4.65204334 1.65269269,6.58763411 0.227948546,8.5716015 L3.93375565,12.2774086 C4.81741777,10.6155138 6.82609931,8.14856896 7.55674407,7.4179242 C8.25399845,6.72066982 10.5326952,4.85895857 12.1840733,3.92192441" id="Fill-26" fill="#7F25BC"></path>
                            <path d="M4.09544925,14.9762458 L4.04838721,14.9294466 L0.378862578,18.5989713 C1.76574675,20.5085333 3.30485954,22.3365913 4.03471556,23.0664473 C4.79112613,23.8225949 6.7267169,25.4484701 8.71068429,26.8729514 L12.3512881,23.2323475 L12.1246542,23.0057136 C10.4782715,22.0581628 8.24558512,20.2332598 7.55674407,19.5444188 C6.86790302,18.8553148 5.04300007,16.6228914 4.09544925,14.9762458" id="Fill-27" fill="#7F25BC"></path>
                            <path d="M23.3062271,12.2774086 L27.0120342,8.5716015 C25.58729,6.58763411 23.9616777,4.65204334 23.2052672,3.89563276 C22.4754111,3.16603967 20.6476161,1.62692688 18.7380541,0.240042702 L15.0559094,3.92192441 C16.7072875,4.85895857 18.9859843,6.72066982 19.6832386,7.4179242 C20.4138834,8.14856896 22.4225649,10.6155138 23.3062271,12.2774086" id="Fill-28" fill="#9192FC"></path>
                            <path d="M11.8338686,10.1835421 L16.9878194,13.1594932 C17.2959574,13.3374876 17.2959574,13.6285361 16.9878194,13.8062676 L11.8338686,16.7819558 C11.5257305,16.9596873 11.2735937,16.8142945 11.2735937,16.4585686 L11.2735937,10.5069293 C11.2735937,10.1514663 11.5257305,10.0058106 11.8338686,10.1835421" id="Fill-29" fill="#7F25BC"></path>
                        </g>
                    </g>
                </g>
            </g>
        </g>
    </g>
</svg>