<?xml version="1.0" standalone="no"?>
<!DOCTYPE svg PUBLIC "-//W3C//DTD SVG 20010904//EN"
 "http://www.w3.org/TR/2001/REC-SVG-20010904/DTD/svg10.dtd">
<svg version="1.0" xmlns="http://www.w3.org/2000/svg"
 width="260.000000pt" height="260.000000pt" viewBox="0 0 260.000000 260.000000"
 preserveAspectRatio="xMidYMid meet">
<metadata>
Created by potrace 1.11, written by Peter Selinger 2001-2013
</metadata>
<g transform="translate(0.000000,260.000000) scale(0.100000,-0.100000)"
fill="#000000" stroke="none">
<path d="M1169 2586 c-2 -2 -26 -6 -54 -9 -27 -3 -84 -13 -125 -23 -41 -10
-78 -17 -82 -16 -5 1 -8 -2 -8 -8 0 -5 -6 -10 -14 -10 -21 0 -170 -61 -177
-72 -3 -5 -12 -10 -20 -11 -8 -2 -25 -10 -39 -20 -13 -9 -28 -17 -33 -17 -4 0
-13 -5 -20 -10 -7 -6 -43 -34 -82 -62 -70 -52 -225 -202 -225 -218 0 -4 -3
-10 -8 -12 -12 -5 -82 -105 -82 -117 0 -6 -4 -11 -8 -11 -4 0 -28 -42 -52 -92
-25 -51 -47 -95 -50 -98 -5 -5 -8 -15 -15 -50 -2 -8 -4 -16 -5 -17 -2 -2 -3
-6 -5 -10 -1 -5 -5 -15 -8 -23 -4 -8 -8 -24 -10 -35 -2 -11 -7 -27 -10 -35 -3
-8 -9 -33 -12 -55 -4 -22 -10 -53 -14 -70 -11 -53 -5 -325 7 -337 7 -7 12 -20
12 -30 0 -19 3 -28 40 -98 12 -24 24 -51 24 -60 2 -20 64 -139 82 -157 8 -8
14 -18 14 -23 0 -8 87 -143 117 -180 86 -108 115 -144 163 -194 72 -77 155
-156 205 -196 37 -29 210 -140 219 -140 2 0 25 -10 52 -22 27 -12 51 -23 54
-23 113 -23 172 -27 334 -22 180 5 197 6 265 28 51 16 185 80 193 93 5 7 8 7
8 1 0 -6 3 -6 8 1 4 5 41 35 82 66 112 83 236 215 394 418 54 70 206 321 206
341 0 8 4 19 9 25 9 9 65 177 77 229 10 45 10 263 0 315 -5 25 -10 52 -11 60
-3 23 -36 129 -50 164 -7 17 -14 34 -14 39 -1 13 -73 151 -93 180 -11 15 -16
27 -11 27 4 0 4 4 -2 8 -5 4 -36 42 -68 84 -57 76 -195 214 -246 246 -14 9
-28 19 -31 23 -3 3 -20 14 -37 24 -18 11 -33 23 -33 27 0 4 -9 8 -19 8 -11 0
-21 4 -23 8 -8 21 -266 126 -328 134 -14 2 -31 7 -37 11 -7 5 -13 6 -13 4 0
-3 -26 1 -57 7 -52 11 -324 21 -334 12z"/>
</g>
</svg>
